# xmcd CD database file
#
# Track frame offsets:
#	150
#	15524
#	39582
#	60114
#	78615
#	98003
#	112887
#	135954
#	156474
#	183003
#	207110
#	232238
#	249410
#	264244
#
# Disc length: 3783 seconds
#
# Revision: 0
# Processed by: cddbd v1.5.2PL0 Copyright (c) Steve Scherf et al.
# Submitted via: CDex 1.70beta2
#
DISCID=a50ec50e
DTITLE=Karin Rudefelt and Doctor Blues - Walk the Walk
DYEAR=2011
DGENRE=Blues
TTITLE0=Walk the Walk
TTITLE1=Room Next Door
TTITLE2=Paradise of Love
TTITLE3=Angel On My Shoulder
TTITLE4=Guts to Live
TTITLE5=Loving Boy
TTITLE6=Devil's Child
TTITLE7=Unknown Fate
TTITLE8=Have to Let It Go
TTITLE9=Bleedin' on the Floor
TTITLE10=Fake Paradise
TTITLE11=River of Pain
TTITLE12=Man's Best Friend
TTITLE13=Room Next Door (Acoustic Version)
EXTD=YEAR: 2011
EXTT0=
EXTT1=
EXTT2=
EXTT3=
EXTT4=
EXTT5=
EXTT6=
EXTT7=
EXTT8=
EXTT9=
EXTT10=
EXTT11=
EXTT12=
EXTT13=
PLAYORDER=
